<?xml version="1.0" standalone="no"?>
<!DOCTYPE svg PUBLIC "-//W3C//DTD SVG 20010904//EN"
 "http://www.w3.org/TR/2001/REC-SVG-20010904/DTD/svg10.dtd">
<svg version="1.0" xmlns="http://www.w3.org/2000/svg"
 width="1024.000000pt" height="1024.000000pt" viewBox="0 0 1024.000000 1024.000000"
 preserveAspectRatio="xMidYMid meet">

<g transform="translate(0.000000,1024.000000) scale(0.100000,-0.100000)"
fill="#000000" stroke="none">
<path d="M0 5120 l0 -5120 4720 0 4720 0 0 80 0 80 320 0 320 0 0 -80 0 -80
80 0 80 0 0 5120 0 5120 -5120 0 -5120 0 0 -5120z m5700 4236 c501 -71 848
-173 1284 -380 727 -345 1452 -1017 1877 -1742 67 -114 229 -433 229 -450 0
-3 8 -24 18 -47 85 -192 158 -414 216 -657 108 -451 150 -887 127 -1343 -28
-594 -112 -993 -326 -1557 -47 -123 -228 -491 -294 -597 -28 -46 -51 -85 -51
-89 0 -3 -35 -56 -77 -117 -418 -605 -923 -1060 -1533 -1385 -235 -125 -569
-257 -845 -334 -538 -149 -1074 -190 -1610 -122 -680 86 -1371 352 -1895 728
-583 418 -1034 944 -1349 1573 -166 332 -268 617 -361 1006 -42 177 -82 454
-96 662 -4 55 -8 103 -10 107 -9 14 -4 602 6 728 55 721 263 1391 613 1975
121 200 271 403 456 615 281 321 679 659 1019 864 336 203 761 377 1142 470
129 31 184 42 390 76 30 5 105 14 165 20 61 5 126 12 145 14 93 10 651 -3 760
-18z m1602 -69 c102 -53 308 -183 326 -205 17 -22 15 -83 -3 -109 -32 -45
-127 -48 -197 -6 -106 64 -277 178 -301 201 -25 23 -28 32 -23 67 6 47 52 95
91 95 13 0 61 -19 107 -43z m726 -442 c161 -131 228 -190 445 -398 189 -181
217 -215 217 -260 0 -50 -104 -157 -153 -157 -14 0 -90 69 -226 203 -197 193
-292 278 -463 412 -42 33 -82 72 -88 87 -18 41 3 91 53 130 23 18 53 43 67 55
14 13 26 23 28 23 1 0 55 -43 120 -95z m-5523 -15 c44 -21 65 -53 65 -98 0
-35 -21 -66 -84 -122 -161 -144 -347 -320 -456 -432 -114 -117 -128 -128 -160
-128 -97 1 -173 118 -123 190 24 35 321 320 534 512 116 105 147 115 224 78z
m6732 -1132 c104 -137 311 -544 413 -812 160 -421 253 -820 301 -1291 26 -257
36 -768 20 -1026 -21 -328 -80 -766 -133 -979 -146 -596 -341 -1076 -629
-1542 -50 -81 -186 -298 -201 -321 -3 -6 -46 24 -99 69 -155 132 -179 156
-179 176 0 10 51 94 113 186 219 322 360 587 514 962 172 420 298 977 334
1480 15 217 7 742 -15 910 -97 738 -314 1370 -666 1938 -44 73 -79 136 -76
140 3 5 48 39 101 77 52 37 98 71 101 76 3 5 18 9 33 9 23 0 37 -11 68 -52z
m-7933 2 c74 -45 156 -108 162 -125 3 -7 -39 -91 -94 -187 -277 -482 -482
-1044 -567 -1558 -37 -223 -53 -382 -66 -666 -11 -227 -11 -294 4 -525 27
-424 80 -733 196 -1149 27 -95 54 -170 128 -360 139 -354 399 -834 585 -1081
l67 -88 -112 -99 c-62 -55 -121 -109 -131 -121 -11 -11 -22 -21 -26 -21 -11 0
-131 187 -235 365 -109 185 -253 463 -295 569 -18 44 -36 87 -41 95 -31 57
-130 337 -184 527 -62 215 -133 548 -150 709 -3 33 -10 83 -15 110 -37 195
-55 996 -30 1335 26 370 107 845 187 1105 78 254 176 516 253 680 106 223 281
531 299 523 3 -2 33 -19 65 -38z m7259 -5861 c31 -16 157 -141 157 -156 0 -32
-589 -590 -667 -631 -65 -35 -146 8 -173 90 -20 65 -2 96 111 190 55 46 195
181 312 300 117 120 218 217 225 218 7 0 23 -5 35 -11z m-6544 -103 c73 -86
207 -218 373 -366 122 -109 138 -132 138 -197 0 -46 -3 -54 -40 -87 -43 -39
-93 -47 -137 -23 -37 21 -291 258 -465 435 -180 183 -186 193 -151 253 25 41
86 69 154 69 l57 0 71 -84z"/>
<path d="M4975 9099 c-234 -15 -438 -47 -705 -110 -580 -138 -1131 -427 -1620
-849 -131 -114 -370 -355 -469 -475 -244 -293 -453 -635 -601 -981 -84 -197
-88 -208 -150 -404 -144 -457 -194 -807 -194 -1335 0 -258 4 -340 22 -485 53
-420 82 -557 189 -885 55 -168 168 -444 245 -600 334 -673 887 -1264 1541
-1648 294 -172 671 -334 922 -396 22 -6 92 -23 155 -39 276 -71 453 -92 811
-99 327 -6 502 5 749 48 260 45 605 147 815 239 277 122 398 184 615 319 514
318 1044 869 1326 1376 21 39 49 88 62 110 164 288 351 803 417 1148 82 435
109 811 85 1192 -11 172 -18 226 -56 465 -77 473 -241 945 -474 1363 -367 659
-1022 1283 -1720 1639 -484 247 -965 373 -1563 408 -195 11 -212 11 -402 -1z
m428 -1740 l27 -29 0 -2405 0 -2405 -124 0 c-96 0 -126 3 -136 15 -9 11 -12
546 -13 2402 -1 2286 0 2389 17 2416 23 34 63 45 141 40 50 -4 64 -10 88 -34z
m627 -2384 l0 -2316 -23 -23 c-45 -45 -180 -42 -223 5 -19 21 -19 74 -22 2323
-1 1265 0 2307 3 2314 3 9 40 12 135 12 l130 0 0 -2315z m551 1485 c51 -28 49
36 49 -1432 0 -1278 -1 -1365 -18 -1398 l-17 -35 -95 -3 c-110 -3 -135 1 -145
25 -13 32 -5 2806 8 2821 6 8 20 18 32 22 29 12 163 12 186 0z m-2378 -221
c26 -7 41 -18 47 -35 6 -16 10 -472 10 -1178 0 -1137 0 -1154 -20 -1179 -42
-53 -172 -59 -230 -10 l-30 25 0 1167 c0 1234 -2 1184 45 1209 26 14 129 15
178 1z m-553 -239 c13 -8 15 -130 15 -1001 l0 -991 -27 -23 c-56 -48 -175 -42
-217 12 -21 26 -21 32 -21 997 0 863 2 974 16 994 14 20 23 22 117 22 56 0
109 -5 117 -10z m1156 -312 c9 -9 20 -36 25 -60 14 -72 11 -1212 -3 -1243 -17
-38 -58 -55 -130 -55 -71 0 -99 14 -117 57 -8 21 -11 195 -9 650 3 588 4 622
22 641 23 26 44 31 128 28 47 -1 73 -7 84 -18z m2345 -105 c59 -35 59 -34 59
-572 l0 -492 -25 -24 c-49 -49 -215 -34 -236 22 -12 33 -12 984 1 1017 22 59
137 87 201 49z m-4165 -274 c19 -11 39 -29 44 -39 6 -11 10 -125 10 -273 0
-248 -1 -255 -23 -288 -32 -47 -62 -61 -125 -55 -61 5 -97 31 -111 80 -14 52
-13 497 2 526 34 66 136 91 203 49z m4713 -104 c16 -8 31 -22 35 -30 3 -9 6
-116 6 -237 l0 -220 -30 -28 c-58 -54 -169 -49 -211 10 -16 22 -18 52 -21 240
-3 228 1 246 47 269 31 15 142 13 174 -4z"/>
</g>
</svg>
